<svg xmlns="http://www.w3.org/2000/svg" xmlns:xlink="http://www.w3.org/1999/xlink" width="16" height="11" viewBox="0 0 16 11"><defs><path id="a" d="M989 12096.2v6.5c0 1.2-.9 2-2 2h-12c-1.1 0-2-.8-2-2v-6.5c0-1.1.9-2 2-2h12a2 2 0 0 1 2 2zm-15 5.9l3.5-2.6-3.5-2.6zm14 .6l-3.92-2.9-2.18 1.6a1.5 1.5 0 0 1-1.8 0l-2.18-1.6-3.92 2.9c0 .6.45 1 1 1h12c.55 0 1-.4 1-1zm0-5.8l-3.5 2.6 3.5 2.6zm0-.7c0-.5-.45-1-1-1h-12c-.55 0-1 .5-1 1l3.92 3 .41.3 2.07 1.5c.18.2.38.2.6.2.22 0 .43 0 .6-.2z"/></defs><desc>Generated with Avocode.</desc><g transform="translate(-973 -12094)"><use fill="gray" xlink:href="#a"/></g></svg>