<svg xmlns="http://www.w3.org/2000/svg" xmlns:xlink="http://www.w3.org/1999/xlink" width="18" height="18" viewBox="0 0 18 18"><defs><path id="a" d="M987.9 12153.4l-8.55 8.6c-.26.3-.6.5-.95.6l-4.75 1.3c-.02 0-.43.1-.65.1-1.08 0-1.96-.9-1.96-2 0-.2.09-.6.09-.6l1.31-4.7c.11-.4.3-.7.57-1l5.79-5.8c.01-.1.02-.1.03-.1l2.73-2.7c.67-.7 1.6-1.1 2.61-1.1 1.2 0 2.41.6 3.33 1.5 1.78 1.8 1.95 4.4.4 5.9zm-7.89 6.4l4.33-4.4c.72-.7.88-1.8.56-2.8l-5.3 5.3c.22.5.36 1 .4 1.5.02.1.01.2.01.4zm4.66-7.8c-.18-.3-.42-.7-.72-1-.35-.3-.75-.6-1.17-.8l-5.34 5.4a4.03 4.03 0 0 1 1.88 1.8zm-2.48-2c-.95-.2-1.91 0-2.57.6l-4.31 4.4c.54 0 1.08.1 1.6.3zm-6.73 12.2c.02-.6-.23-1.3-.78-1.9-.54-.5-1.23-.8-1.87-.8l-.6 2.2-.05.3c0 .5.37.8.83.8h.38zm2.62-.7c.07 0 .13 0 .2-.1.98-1.1.78-2.9-.49-4.2-1.2-1.2-2.93-1.4-4.05-.6-.1.1-.18.2-.22.4l-.56 2c.77 0 1.53.3 2.11.9.62.6.93 1.4.94 2.2zm9.75-10.9c-.05-.8-.45-1.7-1.12-2.3a3.69 3.69 0 0 0-2.54-1.1c-.7 0-1.36.2-1.82.7l-.93.9c1.2 0 2.41.5 3.32 1.5a4.6 4.6 0 0 1 1.43 2.9v.4l.94-1c.52-.5.78-1.2.72-2z"/></defs><desc>Generated with Avocode.</desc><g transform="translate(-971 -12146)"><use fill="gray" xlink:href="#a"/></g></svg>